<svg xmlns="http://www.w3.org/2000/svg" width="53.489" height="53.489" viewBox="0 0 53.489 53.489"><g id="&#x421;&#x433;&#x440;&#x443;&#x43F;&#x43F;&#x438;&#x440;&#x43E;&#x432;&#x430;&#x442;&#x44C;_12677" data-name="&#x421;&#x433;&#x440;&#x443;&#x43F;&#x43F;&#x438;&#x440;&#x43E;&#x432;&#x430;&#x442;&#x44C; 12677" transform="translate(-385.392 -633.329)"><ellipse id="&#x42D;&#x43B;&#x43B;&#x438;&#x43F;&#x441;_1231" data-name="&#x42D;&#x43B;&#x43B;&#x438;&#x43F;&#x441; 1231" cx="9.72" cy="9.72" rx="9.72" ry="9.72" transform="translate(401.438 668.515) rotate(-83)" fill="#e8e5ff"></ellipse><g id="&#x421;&#x433;&#x440;&#x443;&#x43F;&#x43F;&#x438;&#x440;&#x43E;&#x432;&#x430;&#x442;&#x44C;_12357" data-name="&#x421;&#x433;&#x440;&#x443;&#x43F;&#x43F;&#x438;&#x440;&#x43E;&#x432;&#x430;&#x442;&#x44C; 12357" transform="matrix(0.53, 0.848, -0.848, 0.53, 418.311, 633.329)"><path id="&#x41A;&#x43E;&#x43D;&#x442;&#x443;&#x440;_26074" data-name="&#x41A;&#x43E;&#x43D;&#x442;&#x443;&#x440; 26074" d="M492.37,435.533a19.342,19.342,0,0,1,22.549-5.746c.44.18.871.381,1.3.595a19.409,19.409,0,1,1-23.846,5.151Zm-1.6,19.192a18.142,18.142,0,0,0,23.732,9.681,17.841,17.841,0,0,0,6.445-4.589,18.183,18.183,0,0,0,4.432-9.293,18.1,18.1,0,0,0-9.389-18.811c-.473-.253-.956-.483-1.449-.693a18.1,18.1,0,0,0-23.255,8.564q-.369.734-.67,1.5A18.064,18.064,0,0,0,490.77,454.724Z" transform="translate(-488.068 -428.289)" fill="#e8e5ff"></path></g></g></svg>