<svg xmlns="http://www.w3.org/2000/svg" viewBox="98.45 148 613.63 627.87"><g id="&#x421;&#x433;&#x440;&#x443;&#x43F;&#x43F;&#x438;&#x440;&#x43E;&#x432;&#x430;&#x442;&#x44C;_12677" data-name="&#x421;&#x433;&#x440;&#x443;&#x43F;&#x43F;&#x438;&#x440;&#x43E;&#x432;&#x430;&#x442;&#x44C; 12677" transform="translate(540.871 -870.923)"><g id="shutterstock_667976041" transform="matrix(-0.53, -0.848, 0.848, -0.53, -218.156, 1689.783)" fill="none"><path d="M56.1,53.537c136.426-102.29,433.455-40.34,505.986,38.9s60.874,213.765-34.538,318.4S160.432,684.27,114.818,459.816-80.323,155.827,56.1,53.537Z" stroke="none"></path><path d="M 256.4020690917969 1 C 237.1133422851562 1 218.2756958007812 2.00250244140625 200.412353515625 3.97979736328125 C 181.7279663085938 6.0479736328125 163.8259887695312 9.21527099609375 147.2037048339844 13.3936767578125 C 111.3739929199219 22.40045166015625 80.92507934570312 36.17578125 56.70269775390625 54.33734130859375 C 46.20169067382812 62.2108154296875 37.14031982421875 70.17352294921875 29.77032470703125 78.0042724609375 C 26.14935302734375 81.85162353515625 22.83941650390625 85.7684326171875 19.93231201171875 89.64599609375 C 17.0711669921875 93.46234130859375 14.50909423828125 97.3624267578125 12.31707763671875 101.2378540039062 C 10.1649169921875 105.043212890625 8.300048828125 108.9478149414062 6.7745361328125 112.8431396484375 C 5.2801513671875 116.6588745117188 4.06231689453125 120.5909423828125 3.15478515625 124.5304260253906 C 2.2681884765625 128.3789672851562 1.64813232421875 132.3632507324219 1.31195068359375 136.3725280761719 C 0.98468017578125 140.2761535644531 0.91522216796875 144.3369750976562 1.10577392578125 148.4422302246094 C 1.80059814453125 163.4137878417969 5.873779296875 179.8946838378906 13.92431640625 200.3085021972656 C 21.2327880859375 218.8406982421875 31.27935791015625 239.2088012695312 41.91571044921875 260.7728881835938 C 67.27798461914062 312.1918029785156 98.84207153320312 376.184326171875 115.7976989746094 459.61669921875 C 117.8148803710938 469.5427856445312 120.335693359375 478.937255859375 123.2900695800781 487.5393371582031 C 126.1681518554688 495.9194946289062 129.5354309082031 503.773681640625 133.29833984375 510.8836975097656 C 136.9610595703125 517.804443359375 141.09716796875 524.2066040039062 145.5918884277344 529.9122314453125 C 149.9644470214844 535.4627685546875 154.7939758300781 540.5036010742188 159.9464416503906 544.894775390625 C 164.9578857421875 549.165771484375 170.409423828125 552.9368896484375 176.1497192382812 556.1033935546875 C 181.7328796386719 559.183349609375 187.7384338378906 561.7736206054688 193.9994201660156 563.8024291992188 C 200.0877990722656 565.7752685546875 206.5789794921875 567.2693481445312 213.2925109863281 568.2432250976562 C 219.8175354003906 569.1898193359375 226.7233276367188 569.669677734375 233.8181457519531 569.669677734375 C 257.375244140625 569.669677734375 284.0050659179688 564.4481201171875 312.9677124023438 554.1500854492188 C 338.9926147460938 544.8966064453125 366.5238647460938 531.7077026367188 394.7968139648438 514.9498901367188 C 407.7551574707031 507.2693481445312 420.8137817382812 498.8585205078125 433.6100769042969 489.9512329101562 C 445.835693359375 481.4412231445312 457.8683471679688 472.4468994140625 469.3737182617188 463.21826171875 C 491.4254455566406 445.5300598144531 511.2870788574219 427.18212890625 526.8111572265625 410.157958984375 C 538.5087890625 397.330078125 549.1948852539062 383.75244140625 558.5728149414062 369.80224609375 C 567.7247924804688 356.1880493164062 575.7725219726562 342.0093383789062 582.4926147460938 327.6599731445312 C 589.088134765625 313.576416015625 594.4971313476562 299.1325988769531 598.5692749023438 284.7298889160156 C 602.5929565429688 270.4981384277344 605.3631591796875 256.125244140625 606.8027954101562 242.01025390625 C 608.236083984375 227.9580688476562 608.3680419921875 213.9915161132812 607.1952514648438 200.4984130859375 C 606.0184326171875 186.9601440429688 603.5135498046875 173.7341613769531 599.7500610351562 161.1877746582031 C 595.945068359375 148.5028686523438 590.8040771484375 136.3495178222656 584.469970703125 125.0652465820312 C 578.0206298828125 113.5758666992188 570.2422485351562 102.8250732421875 561.3508911132812 93.11126708984375 C 555.8030395507812 87.05035400390625 548.8005981445312 80.96826171875 540.5380859375 75.03399658203125 C 532.41943359375 69.20306396484375 523.0018920898438 63.45513916015625 512.5471801757812 57.9500732421875 C 502.1995239257812 52.501220703125 490.7437133789062 47.24151611328125 478.497802734375 42.3167724609375 C 466.2696228027344 37.399169921875 453.1514282226562 32.7745361328125 439.5075073242188 28.57122802734375 C 381.7945251464844 10.7916259765625 316.7664184570312 1 256.4020690917969 1 M 256.4020690917969 0 C 383.2932739257812 0 516.6817626953125 42.82965087890625 562.0885009765625 92.43603515625 C 634.6187744140625 171.6747741699219 622.9620361328125 306.2005920410156 527.550048828125 410.831787109375 C 466.613037109375 477.6568603515625 333.7487182617188 570.6697387695312 233.8181762695312 570.6697387695312 C 177.2825622558594 570.6697387695312 131.2995910644531 540.91748046875 114.8177185058594 459.8158569335938 C 69.20297241210938 235.3619689941406 -80.323486328125 155.8273315429688 56.102783203125 53.5372314453125 C 107.12109375 15.28460693359375 180.6038208007812 0 256.4020690917969 0 Z" stroke="none" fill="#e8e9f1"></path></g><g id="shutterstock_667976041-2" data-name="shutterstock_667976041" transform="matrix(-0.53, -0.848, 0.848, -0.53, -208.156, 1709.783)" fill="none"><path d="M56.1,53.537c136.426-102.29,433.455-40.34,505.986,38.9s60.874,213.765-34.538,318.4S160.432,684.27,114.818,459.816-80.323,155.827,56.1,53.537Z" stroke="none"></path><path d="M 256.4020690917969 1 C 237.1133422851562 1 218.2756958007812 2.00250244140625 200.412353515625 3.97979736328125 C 181.7279663085938 6.0479736328125 163.8259887695312 9.21527099609375 147.2037048339844 13.3936767578125 C 111.3739929199219 22.40045166015625 80.92507934570312 36.17578125 56.70269775390625 54.33734130859375 C 46.20169067382812 62.2108154296875 37.14031982421875 70.17352294921875 29.77032470703125 78.0042724609375 C 26.14935302734375 81.85162353515625 22.83941650390625 85.7684326171875 19.93231201171875 89.64599609375 C 17.0711669921875 93.46234130859375 14.50909423828125 97.3624267578125 12.31707763671875 101.2378540039062 C 10.1649169921875 105.043212890625 8.300048828125 108.9478149414062 6.7745361328125 112.8431396484375 C 5.2801513671875 116.6588745117188 4.06231689453125 120.5909423828125 3.15478515625 124.5304260253906 C 2.2681884765625 128.3789672851562 1.64813232421875 132.3632507324219 1.31195068359375 136.3725280761719 C 0.98468017578125 140.2761535644531 0.91522216796875 144.3369750976562 1.10577392578125 148.4422302246094 C 1.80059814453125 163.4137878417969 5.873779296875 179.8946838378906 13.92431640625 200.3085021972656 C 21.2327880859375 218.8406982421875 31.27935791015625 239.2088012695312 41.91571044921875 260.7728881835938 C 67.27798461914062 312.1918029785156 98.84207153320312 376.184326171875 115.7976989746094 459.61669921875 C 117.8148803710938 469.5427856445312 120.335693359375 478.937255859375 123.2900695800781 487.5393371582031 C 126.1681518554688 495.9194946289062 129.5354309082031 503.773681640625 133.29833984375 510.8836975097656 C 136.9610595703125 517.804443359375 141.09716796875 524.2066040039062 145.5918884277344 529.9122314453125 C 149.9644470214844 535.4627685546875 154.7939758300781 540.5036010742188 159.9464416503906 544.894775390625 C 164.9578857421875 549.165771484375 170.409423828125 552.9368896484375 176.1497192382812 556.1033935546875 C 181.7328796386719 559.183349609375 187.7384338378906 561.7736206054688 193.9994201660156 563.8024291992188 C 200.0877990722656 565.7752685546875 206.5789794921875 567.2693481445312 213.2925109863281 568.2432250976562 C 219.8175354003906 569.1898193359375 226.7233276367188 569.669677734375 233.8181457519531 569.669677734375 C 257.375244140625 569.669677734375 284.0050659179688 564.4481201171875 312.9677124023438 554.1500854492188 C 338.9926147460938 544.8966064453125 366.5238647460938 531.7077026367188 394.7968139648438 514.9498901367188 C 407.7551574707031 507.2693481445312 420.8137817382812 498.8585205078125 433.6100769042969 489.9512329101562 C 445.835693359375 481.4412231445312 457.8683471679688 472.4468994140625 469.3737182617188 463.21826171875 C 491.4254455566406 445.5300598144531 511.2870788574219 427.18212890625 526.8111572265625 410.157958984375 C 538.5087890625 397.330078125 549.1948852539062 383.75244140625 558.5728149414062 369.80224609375 C 567.7247924804688 356.1880493164062 575.7725219726562 342.0093383789062 582.4926147460938 327.6599731445312 C 589.088134765625 313.576416015625 594.4971313476562 299.1325988769531 598.5692749023438 284.7298889160156 C 602.5929565429688 270.4981384277344 605.3631591796875 256.125244140625 606.8027954101562 242.01025390625 C 608.236083984375 227.9580688476562 608.3680419921875 213.9915161132812 607.1952514648438 200.4984130859375 C 606.0184326171875 186.9601440429688 603.5135498046875 173.7341613769531 599.7500610351562 161.1877746582031 C 595.945068359375 148.5028686523438 590.8040771484375 136.3495178222656 584.469970703125 125.0652465820312 C 578.0206298828125 113.5758666992188 570.2422485351562 102.8250732421875 561.3508911132812 93.11126708984375 C 555.8030395507812 87.05035400390625 548.8005981445312 80.96826171875 540.5380859375 75.03399658203125 C 532.41943359375 69.20306396484375 523.0018920898438 63.45513916015625 512.5471801757812 57.9500732421875 C 502.1995239257812 52.501220703125 490.7437133789062 47.24151611328125 478.497802734375 42.3167724609375 C 466.2696228027344 37.399169921875 453.1514282226562 32.7745361328125 439.5075073242188 28.57122802734375 C 381.7945251464844 10.7916259765625 316.7664184570312 1 256.4020690917969 1 M 256.4020690917969 0 C 383.2932739257812 0 516.6817626953125 42.82965087890625 562.0885009765625 92.43603515625 C 634.6187744140625 171.6747741699219 622.9620361328125 306.2005920410156 527.550048828125 410.831787109375 C 466.613037109375 477.6568603515625 333.7487182617188 570.6697387695312 233.8181762695312 570.6697387695312 C 177.2825622558594 570.6697387695312 131.2995910644531 540.91748046875 114.8177185058594 459.8158569335938 C 69.20297241210938 235.3619689941406 -80.323486328125 155.8273315429688 56.102783203125 53.5372314453125 C 107.12109375 15.28460693359375 180.6038208007812 0 256.4020690917969 0 Z" stroke="none" fill="#e8e9f1"></path></g></g></svg>