<svg xmlns="http://www.w3.org/2000/svg" viewBox="104.55 148.05 613.65 627.87"><g id="&#x421;&#x433;&#x440;&#x443;&#x43F;&#x43F;&#x438;&#x440;&#x43E;&#x432;&#x430;&#x442;&#x44C;_12677" data-name="&#x421;&#x433;&#x440;&#x443;&#x43F;&#x43F;&#x438;&#x440;&#x43E;&#x432;&#x430;&#x442;&#x44C; 12677" transform="translate(-1614.131 -2174.845)"><g id="shutterstock_667976041" transform="matrix(0.53, -0.848, 0.848, 0.53, 1624.131, 2691.297)" fill="none"><path d="M56.1,517.133c136.426,102.29,433.455,40.34,505.986-38.9s60.874-213.765-34.538-318.4S160.432-113.6,114.818,110.854-80.324,414.843,56.1,517.133Z" stroke="none"></path><path d="M 256.4062194824219 569.669921875 C 316.7670288085938 569.669921875 381.7937622070312 559.8778076171875 439.5080261230469 542.0974731445312 C 453.1519470214844 537.8941040039062 466.2702331542969 533.2693481445312 478.4985046386719 528.3517456054688 C 490.7444152832031 523.427001953125 502.2003173828125 518.1672973632812 512.5479736328125 512.7185668945312 C 523.002685546875 507.2134704589844 532.4201049804688 501.4657287597656 540.53857421875 495.6351013183594 C 548.8011474609375 489.700927734375 555.8032836914062 483.6192016601562 561.3507690429688 477.5586547851562 C 570.2421264648438 467.8448181152344 578.0205688476562 457.0940246582031 584.4698486328125 445.6046447753906 C 590.8040161132812 434.3203735351562 595.9450073242188 422.1670227050781 599.7500610351562 409.4821166992188 C 603.5134887695312 396.9357299804688 606.0183715820312 383.7097473144531 607.1951293945312 370.1714782714844 C 608.3680419921875 356.6783752441406 608.2360229492188 342.7118225097656 606.802734375 328.6596374511719 C 605.3630981445312 314.5446472167969 602.5929565429688 300.1717529296875 598.5692138671875 285.9400024414062 C 594.4971313476562 271.5372924804688 589.088134765625 257.0934753417969 582.4925537109375 243.0099182128906 C 575.7725219726562 228.6605529785156 567.7247924804688 214.4818267822266 558.57275390625 200.8676452636719 C 549.1948852539062 186.9174652099609 538.5087890625 173.3398284912109 526.8111572265625 160.5119171142578 C 511.2870483398438 143.4877471923828 491.4255065917969 125.1398315429688 469.3736877441406 107.4516525268555 C 457.8683166503906 98.22301483154297 445.8356628417969 89.22865295410156 433.6100463867188 80.71865081787109 C 420.8137512207031 71.81137847900391 407.755126953125 63.40055847167969 394.7968444824219 55.72001266479492 C 366.5239562988281 38.96219635009766 338.99267578125 25.77328681945801 312.9677734375 16.51983070373535 C 284.005126953125 6.22174072265625 257.3753051757812 1.000195145606995 233.8182220458984 1.000195145606995 C 226.7234039306641 1.000195145606995 219.8175811767578 1.480104207992554 213.2925872802734 2.426649570465088 C 206.5790405273438 3.400558710098267 200.0878601074219 4.894649505615234 193.9994049072266 6.86755895614624 C 187.7384033203125 8.896286010742188 181.7329406738281 11.48655891418457 176.1497650146484 14.56646823883057 C 170.4094848632812 17.73301315307617 164.9578552246094 21.50419425964355 159.9463958740234 25.77519607543945 C 154.7939453125 30.16628646850586 149.9644012451172 35.20719528198242 145.5918579101562 40.75774002075195 C 141.0972137451172 46.46337509155273 136.9610443115234 52.8654670715332 133.2983093261719 59.78619384765625 C 129.5354919433594 66.89628601074219 126.1681289672852 74.75046539306641 123.2900390625 83.13065338134766 C 120.3356704711914 91.73274230957031 117.8148574829102 101.127197265625 115.7976760864258 111.0532836914062 C 98.842041015625 194.4855651855469 67.27785491943359 258.4781799316406 41.91567230224609 309.8970947265625 C 31.27931022644043 331.461181640625 21.23276519775391 351.8292846679688 13.9243106842041 370.3614807128906 C 5.873764991760254 390.7752990722656 1.800583004951477 407.2561950683594 1.105764865875244 422.2277526855469 C 0.9152193665504456 426.3329162597656 0.9845830202102661 430.3938293457031 1.311946630477905 434.2974548339844 C 1.648128509521484 438.3067321777344 2.268128395080566 442.291015625 3.15467381477356 446.1395568847656 C 4.062219142913818 450.0790100097656 5.280128479003906 454.0111083984375 6.774401187896729 457.8268432617188 C 8.299946784973145 461.7221984863281 10.16476440429688 465.6267395019531 12.31703758239746 469.4320983886719 C 14.50894641876221 473.3075561523438 17.07103729248047 477.2076416015625 19.93221855163574 481.0240173339844 C 22.83930969238281 484.9015502929688 26.14931106567383 488.8183898925781 29.77021980285645 492.6657409667969 C 37.14022064208984 500.4964599609375 46.20158386230469 508.4591979980469 56.70258331298828 516.3326416015625 C 80.92476654052734 534.4940185546875 111.3736724853516 548.2693481445312 147.2035827636719 557.2760009765625 C 163.8256683349609 561.4544067382812 181.7276763916016 564.6216430664062 200.4121246337891 566.6898193359375 C 218.2753143310547 568.6671142578125 237.1129455566406 569.6697387695312 256.4017639160156 569.669921875 L 256.4062194824219 569.669921875 M 256.4017944335938 570.669921875 C 180.6035461425781 570.6693115234375 107.1209335327148 555.3853759765625 56.1026725769043 517.1327514648438 C -80.32350921630859 414.8426513671875 69.20285797119141 335.3080139160156 114.8176727294922 110.8541030883789 C 131.299560546875 29.75252914428711 177.2825775146484 0.0002292258577654138 233.8182067871094 0.0002292258577654138 C 333.748779296875 0.0002292258577654138 466.6130676269531 93.01305389404297 527.550048828125 159.8381042480469 C 622.9620361328125 264.4692993164062 634.6187744140625 398.9951171875 562.08837890625 478.2338256835938 C 516.681640625 527.8402709960938 383.2930297851562 570.6708984375 256.4017944335938 570.669921875 Z" stroke="none" fill="#e8e9f1"></path></g><g id="shutterstock_667976041-2" data-name="shutterstock_667976041" transform="matrix(0.53, -0.848, 0.848, 0.53, 1614.131, 2711.297)" fill="none"><path d="M56.1,517.133c136.426,102.29,433.455,40.34,505.986-38.9s60.874-213.765-34.538-318.4S160.432-113.6,114.818,110.854-80.324,414.843,56.1,517.133Z" stroke="none"></path><path d="M 256.4062194824219 569.669921875 C 316.7670288085938 569.669921875 381.7937622070312 559.8778076171875 439.5080261230469 542.0974731445312 C 453.1519470214844 537.8941040039062 466.2702331542969 533.2693481445312 478.4985046386719 528.3517456054688 C 490.7444152832031 523.427001953125 502.2003173828125 518.1672973632812 512.5479736328125 512.7185668945312 C 523.002685546875 507.2134704589844 532.4201049804688 501.4657287597656 540.53857421875 495.6351013183594 C 548.8011474609375 489.700927734375 555.8032836914062 483.6192016601562 561.3507690429688 477.5586547851562 C 570.2421264648438 467.8448181152344 578.0205688476562 457.0940246582031 584.4698486328125 445.6046447753906 C 590.8040161132812 434.3203735351562 595.9450073242188 422.1670227050781 599.7500610351562 409.4821166992188 C 603.5134887695312 396.9357299804688 606.0183715820312 383.7097473144531 607.1951293945312 370.1714782714844 C 608.3680419921875 356.6783752441406 608.2360229492188 342.7118225097656 606.802734375 328.6596374511719 C 605.3630981445312 314.5446472167969 602.5929565429688 300.1717529296875 598.5692138671875 285.9400024414062 C 594.4971313476562 271.5372924804688 589.088134765625 257.0934753417969 582.4925537109375 243.0099182128906 C 575.7725219726562 228.6605529785156 567.7247924804688 214.4818267822266 558.57275390625 200.8676452636719 C 549.1948852539062 186.9174652099609 538.5087890625 173.3398284912109 526.8111572265625 160.5119171142578 C 511.2870483398438 143.4877471923828 491.4255065917969 125.1398315429688 469.3736877441406 107.4516525268555 C 457.8683166503906 98.22301483154297 445.8356628417969 89.22865295410156 433.6100463867188 80.71865081787109 C 420.8137512207031 71.81137847900391 407.755126953125 63.40055847167969 394.7968444824219 55.72001266479492 C 366.5239562988281 38.96219635009766 338.99267578125 25.77328681945801 312.9677734375 16.51983070373535 C 284.005126953125 6.22174072265625 257.3753051757812 1.000195145606995 233.8182220458984 1.000195145606995 C 226.7234039306641 1.000195145606995 219.8175811767578 1.480104207992554 213.2925872802734 2.426649570465088 C 206.5790405273438 3.400558710098267 200.0878601074219 4.894649505615234 193.9994049072266 6.86755895614624 C 187.7384033203125 8.896286010742188 181.7329406738281 11.48655891418457 176.1497650146484 14.56646823883057 C 170.4094848632812 17.73301315307617 164.9578552246094 21.50419425964355 159.9463958740234 25.77519607543945 C 154.7939453125 30.16628646850586 149.9644012451172 35.20719528198242 145.5918579101562 40.75774002075195 C 141.0972137451172 46.46337509155273 136.9610443115234 52.8654670715332 133.2983093261719 59.78619384765625 C 129.5354919433594 66.89628601074219 126.1681289672852 74.75046539306641 123.2900390625 83.13065338134766 C 120.3356704711914 91.73274230957031 117.8148574829102 101.127197265625 115.7976760864258 111.0532836914062 C 98.842041015625 194.4855651855469 67.27785491943359 258.4781799316406 41.91567230224609 309.8970947265625 C 31.27931022644043 331.461181640625 21.23276519775391 351.8292846679688 13.9243106842041 370.3614807128906 C 5.873764991760254 390.7752990722656 1.800583004951477 407.2561950683594 1.105764865875244 422.2277526855469 C 0.9152193665504456 426.3329162597656 0.9845830202102661 430.3938293457031 1.311946630477905 434.2974548339844 C 1.648128509521484 438.3067321777344 2.268128395080566 442.291015625 3.15467381477356 446.1395568847656 C 4.062219142913818 450.0790100097656 5.280128479003906 454.0111083984375 6.774401187896729 457.8268432617188 C 8.299946784973145 461.7221984863281 10.16476440429688 465.6267395019531 12.31703758239746 469.4320983886719 C 14.50894641876221 473.3075561523438 17.07103729248047 477.2076416015625 19.93221855163574 481.0240173339844 C 22.83930969238281 484.9015502929688 26.14931106567383 488.8183898925781 29.77021980285645 492.6657409667969 C 37.14022064208984 500.4964599609375 46.20158386230469 508.4591979980469 56.70258331298828 516.3326416015625 C 80.92476654052734 534.4940185546875 111.3736724853516 548.2693481445312 147.2035827636719 557.2760009765625 C 163.8256683349609 561.4544067382812 181.7276763916016 564.6216430664062 200.4121246337891 566.6898193359375 C 218.2753143310547 568.6671142578125 237.1129455566406 569.6697387695312 256.4017639160156 569.669921875 L 256.4062194824219 569.669921875 M 256.4017944335938 570.669921875 C 180.6035461425781 570.6693115234375 107.1209335327148 555.3853759765625 56.1026725769043 517.1327514648438 C -80.32350921630859 414.8426513671875 69.20285797119141 335.3080139160156 114.8176727294922 110.8541030883789 C 131.299560546875 29.75252914428711 177.2825775146484 0.0002292258577654138 233.8182067871094 0.0002292258577654138 C 333.748779296875 0.0002292258577654138 466.6130676269531 93.01305389404297 527.550048828125 159.8381042480469 C 622.9620361328125 264.4692993164062 634.6187744140625 398.9951171875 562.08837890625 478.2338256835938 C 516.681640625 527.8402709960938 383.2930297851562 570.6708984375 256.4017944335938 570.669921875 Z" stroke="none" fill="#e8e9f1"></path></g></g></svg>